<mxfile host="app.diagrams.net" modified="2023-04-28T21:59:05.933Z" agent="5.0 (Windows NT 10.0; Win64; x64) AppleWebKit/537.36 (KHTML, like Gecko) Chrome/112.0.0.0 Safari/537.36" etag="S3e5Xcy9GAySsy0MiNgV" version="20.4.1" type="github">
  <diagram id="Htsq7HFZtI-DsCKp8mQT" name="PÃ¡gina-1">
    <mxGraphModel dx="782" dy="482" grid="1" gridSize="10" guides="1" tooltips="1" connect="1" arrows="1" fold="1" page="1" pageScale="1" pageWidth="827" pageHeight="1169" math="0" shadow="0">
      <root>
        <mxCell id="0" />
        <mxCell id="1" parent="0" />
        <mxCell id="unaglRWkHzDq1KYLl3ol-5" style="edgeStyle=orthogonalEdgeStyle;rounded=0;orthogonalLoop=1;jettySize=auto;html=1;" edge="1" parent="1" source="unaglRWkHzDq1KYLl3ol-1" target="unaglRWkHzDq1KYLl3ol-4">
          <mxGeometry relative="1" as="geometry">
            <Array as="points">
              <mxPoint x="210" y="160" />
              <mxPoint x="210" y="150" />
            </Array>
          </mxGeometry>
        </mxCell>
        <mxCell id="unaglRWkHzDq1KYLl3ol-7" style="edgeStyle=orthogonalEdgeStyle;rounded=0;orthogonalLoop=1;jettySize=auto;html=1;" edge="1" parent="1" source="unaglRWkHzDq1KYLl3ol-1" target="unaglRWkHzDq1KYLl3ol-6">
          <mxGeometry relative="1" as="geometry">
            <Array as="points">
              <mxPoint x="180" y="170" />
              <mxPoint x="180" y="80" />
            </Array>
          </mxGeometry>
        </mxCell>
        <mxCell id="unaglRWkHzDq1KYLl3ol-13" style="edgeStyle=orthogonalEdgeStyle;rounded=0;orthogonalLoop=1;jettySize=auto;html=1;entryX=0;entryY=0.5;entryDx=0;entryDy=0;" edge="1" parent="1" source="unaglRWkHzDq1KYLl3ol-1" target="unaglRWkHzDq1KYLl3ol-12">
          <mxGeometry relative="1" as="geometry">
            <Array as="points">
              <mxPoint x="180" y="170" />
              <mxPoint x="180" y="240" />
              <mxPoint x="270" y="240" />
            </Array>
          </mxGeometry>
        </mxCell>
        <mxCell id="unaglRWkHzDq1KYLl3ol-20" style="edgeStyle=orthogonalEdgeStyle;rounded=0;orthogonalLoop=1;jettySize=auto;html=1;entryX=0;entryY=0.5;entryDx=0;entryDy=0;" edge="1" parent="1" source="unaglRWkHzDq1KYLl3ol-1" target="unaglRWkHzDq1KYLl3ol-19">
          <mxGeometry relative="1" as="geometry" />
        </mxCell>
        <mxCell id="unaglRWkHzDq1KYLl3ol-1" value="Usuario" style="shape=umlActor;verticalLabelPosition=bottom;verticalAlign=top;html=1;outlineConnect=0;" vertex="1" parent="1">
          <mxGeometry x="120" y="140" width="30" height="60" as="geometry" />
        </mxCell>
        <mxCell id="unaglRWkHzDq1KYLl3ol-4" value="Crear ticket" style="ellipse;whiteSpace=wrap;html=1;" vertex="1" parent="1">
          <mxGeometry x="270" y="120" width="100" height="60" as="geometry" />
        </mxCell>
        <mxCell id="unaglRWkHzDq1KYLl3ol-6" value="Consultar ticket" style="ellipse;whiteSpace=wrap;html=1;" vertex="1" parent="1">
          <mxGeometry x="270" y="50" width="100" height="60" as="geometry" />
        </mxCell>
        <mxCell id="unaglRWkHzDq1KYLl3ol-12" value="Consultar ticket por usuario&amp;nbsp;" style="ellipse;whiteSpace=wrap;html=1;" vertex="1" parent="1">
          <mxGeometry x="270" y="200" width="100" height="60" as="geometry" />
        </mxCell>
        <mxCell id="unaglRWkHzDq1KYLl3ol-22" style="edgeStyle=orthogonalEdgeStyle;rounded=0;orthogonalLoop=1;jettySize=auto;html=1;entryX=0.01;entryY=0.617;entryDx=0;entryDy=0;entryPerimeter=0;" edge="1" parent="1" source="unaglRWkHzDq1KYLl3ol-14" target="unaglRWkHzDq1KYLl3ol-16">
          <mxGeometry relative="1" as="geometry" />
        </mxCell>
        <mxCell id="unaglRWkHzDq1KYLl3ol-23" style="edgeStyle=orthogonalEdgeStyle;rounded=0;orthogonalLoop=1;jettySize=auto;html=1;" edge="1" parent="1" source="unaglRWkHzDq1KYLl3ol-14" target="unaglRWkHzDq1KYLl3ol-17">
          <mxGeometry relative="1" as="geometry" />
        </mxCell>
        <mxCell id="unaglRWkHzDq1KYLl3ol-24" style="edgeStyle=orthogonalEdgeStyle;rounded=0;orthogonalLoop=1;jettySize=auto;html=1;entryX=0;entryY=0.5;entryDx=0;entryDy=0;" edge="1" parent="1" source="unaglRWkHzDq1KYLl3ol-14" target="unaglRWkHzDq1KYLl3ol-18">
          <mxGeometry relative="1" as="geometry" />
        </mxCell>
        <mxCell id="unaglRWkHzDq1KYLl3ol-25" style="edgeStyle=orthogonalEdgeStyle;rounded=0;orthogonalLoop=1;jettySize=auto;html=1;entryX=0;entryY=0.5;entryDx=0;entryDy=0;" edge="1" parent="1" source="unaglRWkHzDq1KYLl3ol-14" target="unaglRWkHzDq1KYLl3ol-21">
          <mxGeometry relative="1" as="geometry" />
        </mxCell>
        <mxCell id="unaglRWkHzDq1KYLl3ol-14" value="Administrador" style="shape=umlActor;verticalLabelPosition=bottom;verticalAlign=top;html=1;outlineConnect=0;" vertex="1" parent="1">
          <mxGeometry x="450" y="110" width="30" height="60" as="geometry" />
        </mxCell>
        <mxCell id="unaglRWkHzDq1KYLl3ol-16" value="Consultar ticket" style="ellipse;whiteSpace=wrap;html=1;" vertex="1" parent="1">
          <mxGeometry x="590" y="50" width="100" height="60" as="geometry" />
        </mxCell>
        <mxCell id="unaglRWkHzDq1KYLl3ol-17" value="Crear ticket" style="ellipse;whiteSpace=wrap;html=1;" vertex="1" parent="1">
          <mxGeometry x="590" y="130" width="100" height="60" as="geometry" />
        </mxCell>
        <mxCell id="unaglRWkHzDq1KYLl3ol-18" value="Consultar ticket por usuario&amp;nbsp;" style="ellipse;whiteSpace=wrap;html=1;" vertex="1" parent="1">
          <mxGeometry x="590" y="210" width="100" height="60" as="geometry" />
        </mxCell>
        <mxCell id="unaglRWkHzDq1KYLl3ol-19" value="Cerrar ticket" style="ellipse;whiteSpace=wrap;html=1;" vertex="1" parent="1">
          <mxGeometry x="270" y="270" width="100" height="60" as="geometry" />
        </mxCell>
        <mxCell id="unaglRWkHzDq1KYLl3ol-21" value="Asignar ticket" style="ellipse;whiteSpace=wrap;html=1;" vertex="1" parent="1">
          <mxGeometry x="590" y="290" width="100" height="60" as="geometry" />
        </mxCell>
      </root>
    </mxGraphModel>
  </diagram>
</mxfile>
